{"title":"Red State 200 VODRip XViD DTRG","uid":6645785,"size":1188821205,"categoryP":"video","categoryS":"movies","magnet":"?xt=urn:btih:d11b639e438cf1b718e6e3f28eb305ef48cc4eb4&amp;dn=Red+State+200+VODRip+XViD+DTRG&amp;tr=udp%3A%2F%2Ftracker.openbittorrent.com%3A80&amp;tr=udp%3A%2F%2Fopen.demonii.com%3A1337&amp;tr=udp%3A%2F%2Ftracker.coppersurfer.tk%3A6969&amp;tr=udp%3A%2F%2Fexodus.desync.com%3A6969","seeders":0,"leechers":0,"uploader":"SAFCukO09","files":3,"time":1314949287,"description":"Format : AVI\nFormat/Info : Audio Video Interleave\nFile size : 1.11 GiB\nDuration : 1h 28mn\nOverall bit rate : 1 792 Kbps\nWriting library : VirtualDub build 32842/release\n\nVideo\nID : 0\nFormat : MPEG-4 Visual\nFormat profile : Advanced Simple@L5\nFormat settings, BVOP : 2\nFormat settings, QPel : No\nFormat settings, GMC : No warppoints\nFormat settings, Matrix : Default (H.263)\nMuxing mode : Packed bitstream\nCodec ID : XVID\nCodec ID/Hint : XviD\nDuration : 1h 28mn\nBit rate : 1 334 Kbps\nWidth : 642 pixels\nHeight : 342 pixels\nDisplay aspect ratio : 1.877\nFrame rate : 25.000 fps\nColor space : YUV\nChroma subsampling : 4:2:0\nBit depth : 8 bits\nScan type : Progressive\nCompression mode : Lossy\nBits/(Pixel*Frame) : 0.243\nStream size : 844 MiB (74%)\nWriting library : XviD 64\n\nAudio\nID : 1\nFormat : AC-3\nFormat/Info : Audio Coding 3\nMode extension : CM (complete main)\nCodec ID : 2000\nDuration : 1h 28mn\nBit rate mode : Constant\nBit rate : 448 Kbps\nChannel(s) : 2 channels\nChannel positions : Front: L R\nSampling rate : 44.1 KHz\nBit depth : 16 bits\nCompression mode : Lossy\nDelay relative to video : 69ms\nStream size : 283 MiB (25%)\nAlignment : Split accross interleaves\nInterleave, duration : 40 ms (1.00 video frame)\nInterleave, preload duration : 500 ms\n\n\n\n\n\n\n &lt;a href=&quot;\nhttp://www.imdb.com/title/tt0873886/&quot; rel=&quot;nofollow&quot; target=&quot;_NEW&quot;&gt;\nhttp://www.imdb.com/title/tt0873886/&lt;/a&gt;\n\n\n\n\n\n\n\n\n\nRatings: 6.5/10 from 1,284 users\nReviews: 22 user | 31 critic\n\nSet in Middle America, a group of teens receive an online invitation for sex, though they soon encounter fundamentalists with a much more sinister agenda.\nDirector:\nKevin Smith\nWriter:\nKevin Smith\nStars:\nMichael Parks, Melissa Leo and John Goodman\n\n\n","torrent":{"xt":"urn:btih:d11b639e438cf1b718e6e3f28eb305ef48cc4eb4","amp;dn":"Red+State+200+VODRip+XViD+DTRG","amp;tr":["udp%3A%2F%2Ftracker.openbittorrent.com%3A80","udp%3A%2F%2Fopen.demonii.com%3A1337","udp%3A%2F%2Ftracker.coppersurfer.tk%3A6969","udp%3A%2F%2Fexodus.desync.com%3A6969"],"infoHash":"d11b639e438cf1b718e6e3f28eb305ef48cc4eb4","infoHashBuffer":{"type":"Buffer","data":[209,27,99,158,67,140,241,183,24,230,227,242,142,179,5,239,72,204,78,180]},"announce":[],"urlList":[]}}